<?xml version="1.0" encoding="utf-8"?>
<!-- Generator: Adobe Illustrator 19.0.0, SVG Export Plug-In . SVG Version: 6.00 Build 0)  -->
<svg version="1.1" id="Layer_1" xmlns="http://www.w3.org/2000/svg" xmlns:xlink="http://www.w3.org/1999/xlink" x="0px" y="0px"
	 viewBox="-33 6.4 122.8 77.9" style="enable-background:new -33 6.4 122.8 77.9;" xml:space="preserve">
<style type="text/css">
	.st0{fill:#FFFFFF;}
</style>
<g>
	<path class="st0" d="M16.6,41.2c0,0,11.6-0.9,11.6-14.5C28.3,13,18.8,6.4,6.7,6.4h-22.2h-0.7H-33v76.3h16.8h0.7H6.7
		c0,0,24.2,0.8,24.2-22.5C30.9,60.2,32,41.2,16.6,41.2z M-15.5,19.9H3.8h2.9c0,0,5.4,0,5.4,7.9c0,7.9-3.2,9.1-6.8,9.1h-20.8V19.9z
		 M5.7,69.1h-21.2V48.7H6.7c0,0,8-0.1,8,10.5C14.7,68,8.9,69,5.7,69.1z"/>
	<g>
		<path class="st0" d="M63.2,25.8c-29.3,0-29.3,29.3-29.3,29.3s-2,29.2,29.3,29.2c0,0,26.1,1.5,26.1-20.3H75.9c0,0,0.4,8.2-12.2,8.2
			c0,0-13.4,0.9-13.4-13.3h39.5C89.8,58.9,94.1,25.8,63.2,25.8z M75.2,48.7H50.1c0,0,1.6-11.8,13.4-11.8
			C75.3,37,75.2,48.7,75.2,48.7z"/>
		<rect x="46.8" y="10.9" class="st0" width="31.5" height="9.4"/>
	</g>
</g>
</svg>
