<?xml version="1.0" encoding="utf-8"?>
<!-- Generator: Adobe Illustrator 19.0.0, SVG Export Plug-In . SVG Version: 6.00 Build 0)  -->
<svg version="1.1" id="Layer_1" xmlns="http://www.w3.org/2000/svg" xmlns:xlink="http://www.w3.org/1999/xlink" x="0px" y="0px"
	 viewBox="-406 358.1 122.8 77.9" style="enable-background:new -406 358.1 122.8 77.9;" xml:space="preserve">
<g>
	<path d="M-356.5,392.9c0,0,11.6-0.9,11.6-14.5c0.1-13.7-9.4-20.3-21.5-20.3h-22.2h-0.7h-16.8v76.3h16.8h0.7h22.2
		c0,0,24.2,0.8,24.2-22.5C-342.2,411.9-341.1,392.9-356.5,392.9z M-388.6,371.6h19.3h2.9c0,0,5.4,0,5.4,7.9s-3.2,9.1-6.8,9.1h-20.8
		V371.6z M-367.4,420.8h-21.2v-20.4h22.2c0,0,8-0.1,8,10.5C-358.4,419.7-364.2,420.7-367.4,420.8z"/>
	<g>
		<path d="M-309.9,377.5c-29.3,0-29.3,29.3-29.3,29.3s-2,29.2,29.3,29.2c0,0,26.1,1.5,26.1-20.3h-13.4c0,0,0.4,8.2-12.2,8.2
			c0,0-13.4,0.9-13.4-13.3h39.5C-283.3,410.6-279,377.5-309.9,377.5z M-297.9,400.4H-323c0,0,1.6-11.8,13.4-11.8
			C-297.8,388.7-297.9,400.4-297.9,400.4z"/>
		<rect x="-326.3" y="362.6" width="31.5" height="9.4"/>
	</g>
</g>
</svg>
