<?xml version="1.0" encoding="utf-8"?>
<!-- Generator: Adobe Illustrator 19.0.0, SVG Export Plug-In . SVG Version: 6.00 Build 0)  -->
<svg version="1.1" id="Layer_1" xmlns="http://www.w3.org/2000/svg" xmlns:xlink="http://www.w3.org/1999/xlink" x="0px" y="0px"
	 viewBox="0 0 162.1 162.1" style="enable-background:new 0 0 162.1 162.1;" xml:space="preserve">
<g id="XMLID_45_">
	<path id="XMLID_5_" d="M72,98.4c-2.4,1.1-5.1,1.6-8.1,1.6c-2.8,0-5.4-0.5-7.8-1.4c-2.4-0.9-4.4-2.2-6.2-3.9
		c-1.7-1.7-3.1-3.7-4.1-6.1c-1-2.4-1.5-4.9-1.5-7.8c0-2.9,0.5-5.5,1.5-7.9c1-2.4,2.4-4.4,4.2-6c1.8-1.7,3.9-2.9,6.3-3.8
		c2.4-0.9,5-1.3,7.7-1.3c2.6,0,5.1,0.5,7.6,1.4c2.5,0.9,4.5,2.2,6,4L71.7,73c-0.8-1.1-1.9-2-3.2-2.5c-1.3-0.5-2.7-0.8-4.1-0.8
		c-1.5,0-2.9,0.3-4.2,0.8c-1.3,0.6-2.4,1.3-3.3,2.3c-0.9,1-1.6,2.2-2.2,3.5c-0.5,1.3-0.8,2.8-0.8,4.4c0,1.6,0.3,3.1,0.8,4.5
		c0.5,1.4,1.2,2.5,2.1,3.5c0.9,1,2,1.7,3.3,2.3c1.3,0.5,2.6,0.8,4.1,0.8c1.7,0,3.3-0.3,4.6-1c1.3-0.7,2.3-1.6,3.1-2.7L78,94
		C76.4,95.8,74.4,97.3,72,98.4z"/>
	<path id="XMLID_7_" d="M96.5,70.2v7.5h14v7.2h-14V99h-8.7V62.7h23.9v7.5H96.5z"/>
</g>
<g id="XMLID_44_">
	<path id="XMLID_2_" d="M81,162.1L0,81L81,0l81,81L81,162.1z M6,81l75,75l75-75L81,6L6,81z"/>
</g>
</svg>
