<?xml version="1.0" encoding="utf-8"?>
<!-- Generator: Adobe Illustrator 19.0.0, SVG Export Plug-In . SVG Version: 6.00 Build 0)  -->
<svg version="1.1" id="Layer_1" xmlns="http://www.w3.org/2000/svg" xmlns:xlink="http://www.w3.org/1999/xlink" x="0px" y="0px"
	 viewBox="0 0 247.3 22.4" style="enable-background:new 0 0 247.3 22.4;" xml:space="preserve">
<g id="XMLID_2_">
	<path id="XMLID_3_" d="M16.2,21.4c-1.4,0.6-3,0.9-4.8,0.9c-1.6,0-3.2-0.3-4.5-0.8c-1.4-0.5-2.6-1.3-3.6-2.3c-1-1-1.8-2.2-2.4-3.6
		C0.3,14.3,0,12.8,0,11.2c0-1.7,0.3-3.2,0.9-4.6C1.5,5.2,2.3,4,3.3,3c1-1,2.3-1.7,3.7-2.2S9.9,0,11.5,0c1.5,0,3,0.3,4.4,0.8
		c1.4,0.5,2.6,1.3,3.5,2.3L16,6.6c-0.5-0.7-1.1-1.1-1.9-1.5c-0.8-0.3-1.6-0.5-2.4-0.5c-0.9,0-1.7,0.2-2.5,0.5S7.8,5.9,7.3,6.5
		C6.8,7.1,6.3,7.8,6,8.6c-0.3,0.8-0.5,1.7-0.5,2.6c0,1,0.2,1.8,0.5,2.6s0.7,1.5,1.2,2.1c0.5,0.6,1.2,1,1.9,1.3
		c0.7,0.3,1.5,0.5,2.4,0.5c1,0,1.9-0.2,2.7-0.6c0.8-0.4,1.4-0.9,1.8-1.6l3.6,3.4C18.7,20,17.6,20.8,16.2,21.4z"/>
	<path id="XMLID_5_" d="M36.7,21.8v-8.9h-8.3v8.9h-5.1V0.6h5.1v8h8.3v-8h5.1v21.2H36.7z"/>
	<path id="XMLID_7_" d="M59.1,21.8l-4.6-8.4h-1.7v8.4h-5V0.6h8.1c1,0,2,0.1,3,0.3c1,0.2,1.8,0.6,2.6,1.1s1.4,1.2,1.8,2
		C63.7,4.8,64,5.8,64,7c0,1.4-0.4,2.6-1.2,3.6s-1.9,1.7-3.2,2.1l5.6,9.1H59.1z M58.9,7.1c0-0.5-0.1-0.9-0.3-1.2s-0.5-0.5-0.8-0.7
		c-0.3-0.2-0.7-0.3-1.1-0.3c-0.4-0.1-0.8-0.1-1.2-0.1h-2.7v5h2.4c0.4,0,0.9,0,1.3-0.1c0.4-0.1,0.8-0.2,1.2-0.4
		C58,9,58.3,8.7,58.6,8.4C58.8,8.1,58.9,7.6,58.9,7.1z"/>
	<path id="XMLID_10_" d="M69,21.8V0.6h5.2v21.2H69z"/>
	<path id="XMLID_12_" d="M91.3,6.1c-0.4-0.6-1-1-1.7-1.3c-0.7-0.3-1.4-0.5-2.1-0.5c-0.3,0-0.7,0-1,0.1c-0.4,0.1-0.7,0.2-0.9,0.3
		c-0.3,0.2-0.5,0.4-0.7,0.7s-0.3,0.6-0.3,1c0,0.4,0.1,0.7,0.2,0.9c0.2,0.2,0.4,0.5,0.7,0.6c0.3,0.2,0.6,0.3,1,0.5
		c0.4,0.1,0.8,0.3,1.4,0.5c0.7,0.2,1.5,0.5,2.2,0.8c0.8,0.3,1.5,0.7,2.1,1.2c0.6,0.5,1.2,1.1,1.6,1.8s0.6,1.6,0.6,2.7
		c0,1.2-0.2,2.3-0.7,3.2c-0.5,0.9-1.1,1.6-1.8,2.2c-0.8,0.6-1.6,1-2.6,1.3c-1,0.3-2,0.4-3,0.4c-1.5,0-3-0.3-4.4-0.8
		c-1.4-0.5-2.6-1.3-3.5-2.3l3.4-3.4c0.5,0.6,1.2,1.2,2.1,1.6c0.8,0.4,1.7,0.6,2.5,0.6c0.4,0,0.8,0,1.1-0.1c0.4-0.1,0.7-0.2,0.9-0.4
		c0.3-0.2,0.5-0.4,0.6-0.7c0.2-0.3,0.2-0.7,0.2-1.1c0-0.4-0.1-0.7-0.3-1c-0.2-0.3-0.5-0.5-0.9-0.8c-0.4-0.2-0.8-0.4-1.4-0.6
		c-0.6-0.2-1.2-0.4-1.9-0.6c-0.7-0.2-1.3-0.5-2-0.8c-0.7-0.3-1.2-0.7-1.7-1.2c-0.5-0.5-0.9-1-1.2-1.7s-0.5-1.5-0.5-2.4
		c0-1.2,0.2-2.2,0.7-3c0.5-0.8,1.1-1.5,1.9-2.1c0.8-0.5,1.7-0.9,2.6-1.2c1-0.2,2-0.4,3-0.4c1.2,0,2.4,0.2,3.7,0.7
		c1.2,0.4,2.3,1.1,3.3,2L91.3,6.1z"/>
	<path id="XMLID_14_" d="M108.2,5v16.9h-5.1V5h-6V0.6h17.1V5H108.2z"/>
	<path id="XMLID_16_" d="M117.9,21.8V0.6h5.2v21.2H117.9z"/>
	<path id="XMLID_18_" d="M143.5,21.8l-1.6-4.2h-8.2l-1.6,4.2h-5.6l8.9-21.2h5l8.8,21.2H143.5z M137.8,6.2l-2.7,7.3h5.3L137.8,6.2z"
		/>
	<path id="XMLID_21_" d="M166.6,5v4.4h8.2v4.2h-8.2v8.2h-5.1V0.6h14V5H166.6z"/>
	<path id="XMLID_23_" d="M197.5,17.3c-0.4,1.1-1,2-1.8,2.7c-0.8,0.8-1.8,1.3-2.9,1.8c-1.1,0.4-2.4,0.6-3.8,0.6
		c-1.4,0-2.7-0.2-3.8-0.6s-2.1-1-2.8-1.8c-0.8-0.8-1.4-1.6-1.8-2.7c-0.4-1-0.6-2.2-0.6-3.5V0.6h5.1v12.8c0,0.6,0.1,1.1,0.2,1.7
		c0.1,0.5,0.4,1,0.7,1.4c0.3,0.4,0.7,0.7,1.2,1c0.5,0.2,1.1,0.4,1.8,0.4c0.7,0,1.3-0.1,1.8-0.4c0.5-0.2,0.9-0.6,1.2-1
		c0.3-0.4,0.5-0.9,0.7-1.4c0.1-0.5,0.2-1.1,0.2-1.7V0.6h5.1v13.2C198.1,15.1,197.9,16.2,197.5,17.3z"/>
	<path id="XMLID_25_" d="M217.3,21.8l-8.5-13.9h-0.1l0.1,13.9h-5V0.6h5.9l8.5,13.9h0.1l-0.1-13.9h5v21.2H217.3z"/>
	<path id="XMLID_27_" d="M243.6,21.8c-1.4,0.3-2.9,0.5-4.5,0.5c-1.7,0-3.3-0.3-4.7-0.8c-1.4-0.5-2.7-1.3-3.7-2.3
		c-1-1-1.8-2.2-2.4-3.5c-0.6-1.4-0.9-2.9-0.9-4.6c0-1.7,0.3-3.2,0.9-4.6c0.6-1.4,1.4-2.6,2.4-3.5c1-1,2.3-1.7,3.7-2.2
		s2.9-0.8,4.5-0.8c1.7,0,3.2,0.3,4.7,0.8c1.4,0.5,2.6,1.2,3.5,2.1l-3.2,3.7c-0.5-0.6-1.2-1.1-2-1.4c-0.8-0.4-1.8-0.6-2.8-0.6
		c-0.9,0-1.7,0.2-2.5,0.5c-0.8,0.3-1.4,0.8-2,1.4c-0.6,0.6-1,1.3-1.3,2.1c-0.3,0.8-0.5,1.7-0.5,2.7c0,1,0.1,1.9,0.4,2.7
		c0.3,0.8,0.7,1.5,1.2,2.1c0.5,0.6,1.2,1,2,1.4c0.8,0.3,1.7,0.5,2.8,0.5c0.6,0,1.2,0,1.7-0.1c0.5-0.1,1-0.2,1.5-0.4v-3.9h-4.1V9.3
		h8.8v11.2C246.2,21.1,245,21.5,243.6,21.8z"/>
</g>
</svg>
