<?xml version="1.0" encoding="utf-8"?>
<!-- Generator: Adobe Illustrator 19.0.0, SVG Export Plug-In . SVG Version: 6.00 Build 0)  -->
<svg version="1.1" id="Layer_1" xmlns="http://www.w3.org/2000/svg" xmlns:xlink="http://www.w3.org/1999/xlink" x="0px" y="0px"
	 viewBox="-39 -11.4 110.6 110.7" style="enable-background:new -39 -11.4 110.6 110.7;" xml:space="preserve">
<style type="text/css">
	.st0{fill:#FFFFFF;}
</style>
<path id="Dribbble" class="st0" d="M16.3-11.4C-14.2-11.4-39,13.4-39,44c0,30.6,24.8,55.3,55.3,55.3c30.6,0,55.3-24.8,55.3-55.3
	C71.7,13.4,46.9-11.4,16.3-11.4z M50.2,17.3c5.4,6.9,8.8,15.3,9.2,24.6c-6.2-1.3-12.1-2-17.6-2v0h0c-4.4,0-8.6,0.4-12.5,1.1
	c-1-2.3-1.9-4.6-2.9-6.7C35.1,30.5,43.4,25.1,50.2,17.3z M16.3,0.8c10.2,0,19.5,3.6,26.9,9.5C37.6,17,30.1,22,22,25.4
	C16.4,14.5,10.9,6.6,7.2,1.8C10.1,1.2,13.2,0.8,16.3,0.8z M-2.7,5.3c3,3.5,9,11.3,15.4,23.5c-13,3.9-26.2,4.8-34.1,4.8
	c-0.2,0-0.5,0-0.7,0h0c-1.3,0-2.5,0-3.4,0C-22.5,21.1-14,10.8-2.7,5.3z M-26.8,44c0-0.2,0-0.4,0-0.6c1.2,0,2.8,0.1,4.7,0.1h0
	c8.7-0.1,23.8-0.8,39.2-5.6c0.8,1.8,1.7,3.7,2.5,5.7C9.3,46.9,1.2,52.4-4.7,57.8c-5.8,5.2-9.6,10.4-11.9,13.9
	C-23,64.2-26.8,54.5-26.8,44z M16.3,87.1c-9.6,0-18.5-3.2-25.6-8.5c1.5-2.5,4.8-7.3,10-12.3c5.4-5.1,12.8-10.4,22.4-13.6
	c3.3,9.2,6.3,19.7,8.5,31.6C26.9,86.1,21.7,87.1,16.3,87.1z M40.8,79.5c-2.2-10.7-4.9-20.4-8-29c2.8-0.4,5.7-0.6,8.9-0.6h0.1h0h0
	c5.1,0,10.8,0.6,16.9,2C56.6,63.3,50,73.1,40.8,79.5z"/>
</svg>
