<?xml version="1.0" encoding="utf-8"?>
<!-- Generator: Adobe Illustrator 19.0.0, SVG Export Plug-In . SVG Version: 6.00 Build 0)  -->
<svg version="1.1" id="Layer_1" xmlns="http://www.w3.org/2000/svg" xmlns:xlink="http://www.w3.org/1999/xlink" x="0px" y="0px"
	 viewBox="-415 344.7 104.6 104.3" style="enable-background:new -415 344.7 104.6 104.3;" xml:space="preserve">
<path d="M-413.3,379.3h21.7V449h-21.7V379.3z M-402.4,344.7c6.9,0,12.6,5.6,12.6,12.6c0,6.9-5.6,12.6-12.6,12.6s-12.6-5.6-12.6-12.6
	S-409.4,344.7-402.4,344.7"/>
<path d="M-378,379.3h20.8v9.5h0.3c2.9-5.5,10-11.3,20.5-11.3c21.9,0,26,14.4,26,33.2v38.2h-21.7v-33.8c0-8.1-0.2-18.5-11.3-18.5
	c-11.3,0-13,8.8-13,17.9V449H-378V379.3z"/>
</svg>
