<?xml version="1.0" encoding="utf-8"?>
<!-- Generator: Adobe Illustrator 19.0.0, SVG Export Plug-In . SVG Version: 6.00 Build 0)  -->
<svg version="1.1" id="Layer_1" xmlns="http://www.w3.org/2000/svg" xmlns:xlink="http://www.w3.org/1999/xlink" x="0px" y="0px"
	 viewBox="-412 341.3 110.6 110.7" style="enable-background:new -412 341.3 110.6 110.7;" xml:space="preserve">
<style type="text/css">
	.st0{fill:#231F20;}
</style>
<path id="Dribbble" class="st0" d="M-356.7,341.3c-30.5,0-55.3,24.8-55.3,55.4s24.8,55.3,55.3,55.3c30.6,0,55.3-24.8,55.3-55.3
	C-301.3,366.1-326.1,341.3-356.7,341.3z M-322.8,370c5.4,6.9,8.8,15.3,9.2,24.6c-6.2-1.3-12.1-2-17.6-2l0,0l0,0
	c-4.4,0-8.6,0.4-12.5,1.1c-1-2.3-1.9-4.6-2.9-6.7C-337.9,383.2-329.6,377.8-322.8,370z M-356.7,353.5c10.2,0,19.5,3.6,26.9,9.5
	c-5.6,6.7-13.1,11.7-21.2,15.1c-5.6-10.9-11.1-18.8-14.8-23.6C-362.9,353.9-359.8,353.5-356.7,353.5z M-375.7,358
	c3,3.5,9,11.3,15.4,23.5c-13,3.9-26.2,4.8-34.1,4.8c-0.2,0-0.5,0-0.7,0l0,0c-1.3,0-2.5,0-3.4,0C-395.5,373.8-387,363.5-375.7,358z
	 M-399.8,396.7c0-0.2,0-0.4,0-0.6c1.2,0,2.8,0.1,4.7,0.1l0,0c8.7-0.1,23.8-0.8,39.2-5.6c0.8,1.8,1.7,3.7,2.5,5.7
	c-10.3,3.3-18.4,8.8-24.3,14.2c-5.8,5.2-9.6,10.4-11.9,13.9C-396,416.9-399.8,407.2-399.8,396.7z M-356.7,439.8
	c-9.6,0-18.5-3.2-25.6-8.5c1.5-2.5,4.8-7.3,10-12.3c5.4-5.1,12.8-10.4,22.4-13.6c3.3,9.2,6.3,19.7,8.5,31.6
	C-346.1,438.8-351.3,439.8-356.7,439.8z M-332.2,432.2c-2.2-10.7-4.9-20.4-8-29c2.8-0.4,5.7-0.6,8.9-0.6h0.1l0,0l0,0
	c5.1,0,10.8,0.6,16.9,2C-316.4,416-323,425.8-332.2,432.2z"/>
</svg>
